<?xml version="1.0" standalone="no"?>
<!DOCTYPE svg PUBLIC "-//W3C//DTD SVG 20010904//EN"
 "http://www.w3.org/TR/2001/REC-SVG-20010904/DTD/svg10.dtd">
<svg version="1.0" xmlns="http://www.w3.org/2000/svg"
 width="502.000000pt" height="502.000000pt" viewBox="0 0 502.000000 502.000000"
 preserveAspectRatio="xMidYMid meet">
<metadata>
Created by potrace 1.14, written by Peter Selinger 2001-2017
</metadata>
<g transform="translate(0.000000,502.000000) scale(0.100000,-0.100000)"
fill="#000000" stroke="none">
<path d="M1861 3715 c0 -11 0 -89 -1 -173 0 -84 2 -157 5 -162 3 -5 2 -11 -2
-13 -5 -3 -6 -112 -3 -242 3 -130 3 -239 1 -241 -4 -4 -4 -29 0 -99 0 -5 0
-121 -2 -256 -1 -135 1 -251 5 -258 4 -6 4 -11 -1 -11 -10 0 -9 -212 1 -228 4
-7 4 -12 -1 -12 -4 0 -8 -128 -8 -285 0 -246 2 -285 15 -286 52 -3 378 -4 390
-1 14 3 16 66 15 553 0 362 3 548 10 546 6 -2 11 -9 11 -15 1 -7 3 -14 4 -17
1 -3 3 -8 5 -12 1 -5 7 -21 13 -36 7 -16 12 -30 12 -32 0 -2 5 -16 12 -32 6
-15 12 -32 14 -38 1 -5 16 -48 34 -95 50 -135 70 -192 86 -240 8 -25 19 -54
24 -65 13 -32 42 -109 46 -125 4 -16 46 -134 57 -160 28 -66 75 -210 69 -210
-4 0 1 -5 11 -11 20 -12 403 -16 415 -4 9 9 9 2253 0 2268 -8 13 -397 17 -405
4 -2 -4 -4 -250 -4 -548 0 -370 -3 -539 -10 -537 -6 2 -11 8 -11 13 -1 6 -14
40 -29 78 -15 37 -26 67 -23 67 3 0 -1 10 -8 23 -6 12 -13 31 -15 42 -2 10 -8
22 -14 26 -6 3 -10 8 -8 10 3 5 -18 74 -31 104 -10 23 -91 245 -94 260 -2 6
-8 24 -15 40 -7 17 -22 57 -33 90 -11 33 -25 66 -31 73 -5 6 -7 12 -3 12 4 0
0 14 -9 30 -9 17 -14 30 -11 30 2 0 -11 38 -29 84 -18 47 -31 87 -28 89 13 14
-61 21 -234 21 -186 1 -192 0 -192 -19z"/>
<path d="M1859 1406 c-7 -5 -4 -176 3 -176 5 0 7 -4 4 -9 -3 -4 5 -6 17 -4 20
4 23 10 21 46 -2 59 5 73 24 45 9 -13 22 -27 29 -31 7 -5 11 -12 9 -16 -3 -4
6 -14 19 -21 14 -7 25 -17 25 -22 0 -5 8 -5 17 1 14 7 17 25 18 99 0 89 0 89
-25 88 -23 -1 -25 -5 -26 -46 -1 -25 -2 -49 -3 -54 -1 -7 -12 4 -71 73 -16 19
-51 34 -61 27z"/>
<path d="M2135 1401 c-63 -26 -80 -108 -31 -156 39 -39 115 -36 161 7 29 27
25 92 -7 124 -26 26 -88 39 -123 25z m85 -46 c18 -22 19 -67 2 -85 -32 -31
-112 -1 -98 37 3 7 1 13 -5 13 -5 0 1 11 13 24 26 28 70 33 88 11z"/>
<path d="M2319 1407 c-5 -13 -3 -57 4 -57 4 0 5 -5 1 -12 -4 -6 -7 -30 -7 -52
1 -63 2 -68 12 -61 5 3 13 0 17 -6 11 -19 22 9 18 49 -5 49 4 57 32 31 l24
-22 25 29 25 29 1 -35 c2 -79 2 -80 34 -80 10 0 13 10 11 35 -1 19 2 35 6 35
5 0 6 5 2 12 -10 16 -12 78 -3 78 5 0 6 6 3 13 -8 22 -45 13 -70 -16 -29 -34
-47 -34 -71 -2 -14 20 -59 42 -64 32z"/>
<path d="M2601 1382 c-7 -15 -12 -28 -12 -30 1 -1 -6 -16 -14 -32 -8 -16 -16
-33 -16 -37 -1 -5 -6 -19 -11 -32 -13 -36 11 -48 37 -18 18 20 34 23 93 18 6
0 12 -7 12 -15 0 -19 23 -26 42 -12 15 11 15 14 -3 36 -10 14 -19 31 -19 39 0
7 -10 32 -22 55 -13 22 -23 42 -24 44 -1 2 -13 5 -26 7 -20 4 -28 -1 -37 -23z
m49 -58 c0 -8 5 -14 11 -14 5 0 7 -4 4 -10 -9 -15 -58 -13 -51 3 3 6 9 20 12
29 7 20 24 14 24 -8z"/>
<path d="M2773 1402 c-6 -4 -10 -26 -9 -49 1 -24 -2 -43 -7 -43 -4 0 -5 -5 -1
-11 4 -7 8 -26 9 -43 2 -17 3 -33 4 -36 1 -6 44 -4 97 3 47 6 82 42 79 80 -5
54 -10 67 -35 84 -24 17 -118 27 -137 15z m112 -55 c28 -44 1 -94 -50 -93 -16
1 -21 9 -23 45 -2 24 -1 50 2 57 9 23 54 17 71 -9z"/>
<path d="M2984 1351 c1 -31 -2 -62 -7 -68 -6 -9 -5 -13 3 -13 7 0 10 -7 6 -15
-11 -30 3 -42 49 -39 25 2 49 5 54 9 5 3 11 -1 14 -7 3 -9 7 -7 12 5 10 24 4
28 -42 31 -30 1 -38 6 -38 21 0 15 7 20 30 21 47 1 52 3 52 19 0 13 -41 21
-78 17 -4 -1 -9 8 -12 18 -5 18 0 20 44 20 27 0 49 3 49 8 -1 21 -21 28 -76
28 l-62 0 2 -55z"/>
</g>
</svg>
